<?xml version="1.0" encoding="utf-8"?>
<!-- Designed by Vexels.com - 2020 All Rights Reserved - https://vexels.com/terms-and-conditions/  -->
<svg version="1.1" id="Capa_1" xmlns="http://www.w3.org/2000/svg" xmlns:xlink="http://www.w3.org/1999/xlink" x="0px" y="0px"
	 viewBox="0 0 1200 1200" enable-background="new 0 0 1200 1200" xml:space="preserve">
<g id="XMLID_2_">
	<path fill="#0C1228" d="M1144.856,270.768c3.479,1.959,5.471,5.809,5.1,9.795c-0.372,3.985-3.073,7.363-6.89,8.612L577.345,478.008
		c84.233,86.226,168.433,175.154,206.226,221.695c8.815,10.842,18.036,22.156,27.459,33.639
		c10.842,13.24,20.839,25.567,30.127,37.017h221.053c2.601,0,5.1,0.979,6.991,2.77l22.967,21.852
		c2.398,2.263,3.512,5.539,3.04,8.781c-0.439,3.242-2.432,6.046-5.37,7.565L932.28,892.892c9.997,18.407,9.862,27.459,3.681,33.606
		c-2.466,2.466-5.438,4.458-10.605,4.458c-4.424,0-10.47-1.486-19.15-5.303l-83.186,163.468c-1.486,2.938-4.289,4.965-7.532,5.438
		c-0.507,0.068-0.979,0.101-1.486,0.101c-2.736,0-5.37-1.081-7.295-3.073l-22.021-22.832c-1.79-1.858-2.803-4.357-2.837-6.958
		l-1.52-219.77c-23.575-17.799-48.703-37.422-73.729-57.619c-48.77-39.381-147.256-128.343-234.327-210.685L281.447,1141.1
		c-1.283,3.783-4.661,6.485-8.646,6.856c-0.338,0.034-0.642,0.034-0.946,0.034c-3.648,0-7.025-1.925-8.849-5.167l-42.488-75.553
		c-0.946-1.689-1.385-3.614-1.25-5.573l13.78-227.606l-37.456-28.235c-15.671-11.787-18.812-34.112-7.025-49.783
		c11.787-15.604,33.977-18.779,49.648-7.126l9.085-150.296l-37.827-28.539c-15.671-11.787-18.812-34.146-7.025-49.783
		c11.821-15.671,34.146-18.812,49.817-7.025l0.203,0.169l9.22-151.917c-50.729-54.985-95.615-107.099-131.315-152.593
		c-29.721-37.929-51.573-69.339-64.914-93.42c-16.718-30.059-19.724-47.926-9.761-57.856c9.93-9.93,27.763-6.924,57.856,9.761
		c24.047,13.375,55.458,35.227,93.386,64.948c46.71,36.611,100.31,82.882,156.882,135.233l151.681-8.849l-0.135-0.203
		c-5.708-7.599-8.106-16.955-6.755-26.378c1.351-9.389,6.248-17.698,13.848-23.406c15.705-11.753,38.03-8.579,49.783,7.093
		l28.438,37.929l150.33-8.748c-11.618-15.671-8.376-37.895,7.228-49.615c15.739-11.753,38.064-8.579,49.817,7.093l28.134,37.557
		l227.639-13.273c1.993-0.135,3.884,0.304,5.573,1.283L1144.856,270.768z M561.572,461.931l553.461-184.746l-52.992-29.958
		l-212.576,12.395l28.573,43.4c3.073,4.661,1.756,10.943-2.905,14.016c-1.722,1.148-3.648,1.689-5.573,1.689
		c-3.276,0-6.518-1.621-8.477-4.56l-38.03-57.822l-31.208-41.644c-5.066-6.721-14.692-8.106-21.447-3.04
		c-6.721,5.066-8.106,14.658-3.04,21.413l11.179,14.928c2.229,2.972,2.668,6.958,1.081,10.335c-1.554,3.377-4.864,5.64-8.579,5.843
		l-156.781,9.153l31.849,46.98c3.141,4.661,1.925,10.943-2.702,14.084c-1.756,1.182-3.715,1.756-5.674,1.756
		c-3.242,0-6.451-1.554-8.41-4.458l-41.745-61.571l-31.545-42.049c-5.066-6.755-14.658-8.14-21.413-3.073
		c-3.242,2.432-5.37,6.012-5.944,10.065c-0.574,4.053,0.439,8.072,2.905,11.348l11.483,15.3c2.229,2.972,2.634,6.958,1.081,10.335
		c-1.587,3.411-4.897,5.64-8.612,5.877l-151.208,8.781c30.802,28.945,62.348,59.477,93.994,91.123
		c14.05,14.05,28.708,28.81,43.738,43.974l217.879-73.29c5.303-1.79,11.078,1.081,12.834,6.383c1.79,5.303-1.047,11.044-6.35,12.834
		L537.896,437.85C545.732,445.787,553.635,453.825,561.572,461.931z M921.675,875.566l146.243-75.688l-9.727-9.254H857.47
		C888.002,828.788,908.638,855.909,921.675,875.566z M917.993,908.935c-1.52-3.546-3.985-7.971-7.126-13.071
		c-0.676-0.709-1.283-1.486-1.723-2.398c-0.169-0.304-0.27-0.642-0.405-0.979c-22.764-35.531-75.52-99.972-113.414-146.311
		c-9.389-11.517-18.643-22.831-27.492-33.707c-39.077-48.095-128.613-142.325-216.055-231.625c-0.068-0.034-0.135-0.101-0.169-0.169
		c-13.24-13.476-26.412-26.851-39.347-39.955c-0.034-0.034-0.068-0.068-0.101-0.101c-16.549-16.752-32.761-33.031-48.162-48.466
		c-93.454-93.42-186.468-177.856-261.92-237.772C101.565,74.572,75.119,71.837,70.256,72.276
		c-0.439,4.762,2.263,31.275,82.106,131.821c59.916,75.452,144.352,168.467,237.806,261.887
		c94.838,94.839,260.975,247.6,329.165,302.686c27.931,22.528,53.566,42.488,76.6,59.814c0.203,0.135,0.405,0.304,0.574,0.439
		C857.74,874.958,900.464,902.248,917.993,908.935z M811.401,1067.269l76.769-150.836c-11.99-6.822-27.121-16.414-46.541-29.823
		c-12.429-8.612-26.243-18.508-40.935-29.35l1.385,200.35L811.401,1067.269z M269.491,1113.034l186.57-554.711
		c-8.342-7.937-16.516-15.773-24.52-23.439l-61.807,182.551c-1.452,4.222-5.404,6.89-9.626,6.89c-1.047,0-2.162-0.169-3.242-0.54
		c-5.303-1.79-8.14-7.532-6.35-12.834l64.914-191.67c-14.118-13.712-27.459-26.817-39.617-38.976
		c-33.099-33.099-64.982-66.063-95.075-98.216l-9.187,151.444c-0.236,3.715-2.466,7.025-5.877,8.579
		c-3.377,1.587-7.329,1.148-10.335-1.115l-15.266-11.483c-6.755-5.1-16.347-3.749-21.447,3.006
		c-5.066,6.721-3.715,16.347,3.04,21.413l42.184,31.782c0.101,0.068,0.135,0.169,0.236,0.236c0.101,0.068,0.236,0.135,0.338,0.236
		l62.685,54.681c4.222,3.681,4.661,10.099,0.979,14.287c-1.993,2.297-4.83,3.479-7.633,3.479c-2.364,0-4.728-0.811-6.654-2.499
		l-47.183-41.137l-9.322,154.011c-0.236,3.715-2.499,7.025-5.877,8.579c-3.377,1.554-7.363,1.148-10.335-1.115l-14.895-11.213
		c-6.755-5.1-16.347-3.749-21.447,3.006c-5.066,6.721-3.715,16.347,3.04,21.413l41.813,31.512c0,0.034,0.034,0.034,0.068,0.068
		c0.034,0.034,0.068,0.034,0.101,0.068l38.638,30.633c4.391,3.479,5.1,9.828,1.655,14.219c-2.026,2.533-4.965,3.85-7.971,3.85
		c-2.195,0-4.424-0.709-6.282-2.195l-23.372-18.542l-12.767,210.651L269.491,1113.034z"/>
	<path fill="#F2C964" d="M1115.033,277.185L561.572,461.931c-7.937-8.106-15.84-16.144-23.676-24.081l208.523-70.116
		c5.303-1.79,8.14-7.532,6.35-12.834c-1.756-5.303-7.532-8.173-12.834-6.383l-217.879,73.29
		c-15.03-15.165-29.688-29.924-43.738-43.974c-31.647-31.647-63.192-62.179-93.994-91.123l151.208-8.781
		c3.715-0.236,7.025-2.466,8.612-5.877c1.554-3.377,1.148-7.363-1.081-10.335l-11.483-15.3c-2.466-3.276-3.479-7.295-2.905-11.348
		c0.574-4.053,2.702-7.633,5.944-10.065c6.755-5.066,16.347-3.681,21.413,3.073l31.545,42.049l41.745,61.571
		c1.959,2.905,5.167,4.458,8.41,4.458c1.959,0,3.918-0.574,5.674-1.756c4.627-3.141,5.843-9.423,2.702-14.084l-31.849-46.98
		l156.781-9.153c3.715-0.203,7.025-2.466,8.579-5.843c1.587-3.377,1.148-7.363-1.081-10.335l-11.179-14.928
		c-5.066-6.755-3.681-16.347,3.04-21.413c6.755-5.066,16.381-3.681,21.447,3.04l31.208,41.644l38.03,57.822
		c1.959,2.938,5.201,4.56,8.477,4.56c1.925,0,3.85-0.54,5.573-1.689c4.661-3.073,5.978-9.355,2.905-14.016l-28.573-43.4
		l212.576-12.395L1115.033,277.185z"/>
	<path fill="#BC3333" d="M1067.918,799.878l-146.243,75.688c-13.037-19.657-33.673-46.778-64.205-84.943h200.721L1067.918,799.878z"
		/>
	<path fill="#293B68" d="M910.867,895.864c3.141,5.1,5.607,9.524,7.126,13.071c-17.529-6.687-60.253-33.977-121.486-80.012
		c-0.169-0.135-0.372-0.304-0.574-0.439c-23.034-17.326-48.669-37.287-76.6-59.814c-68.19-55.086-234.327-207.848-329.165-302.686
		c-93.454-93.42-177.89-186.435-237.806-261.887C72.519,103.551,69.817,77.038,70.256,72.276
		c4.864-0.439,31.309,2.297,131.821,82.106c75.452,59.916,168.467,144.352,261.92,237.772
		c15.401,15.435,31.613,31.714,48.162,48.466c0.034,0.034,0.068,0.068,0.101,0.101c12.936,13.104,26.108,26.479,39.347,39.955
		c0.034,0.068,0.101,0.135,0.169,0.169c87.442,89.299,176.978,183.53,216.055,231.625c8.849,10.875,18.103,22.19,27.492,33.707
		c37.895,46.338,90.65,110.78,113.414,146.311c0.135,0.338,0.236,0.675,0.405,0.979
		C909.583,894.378,910.191,895.155,910.867,895.864z"/>
	<path fill="#BC3333" d="M888.17,916.433l-76.769,150.836l-9.322-9.66l-1.385-200.35c14.692,10.842,28.506,20.737,40.935,29.35
		C861.05,900.019,876.181,909.61,888.17,916.433z"/>
	<path fill="#F2C964" d="M456.061,558.323l-186.57,554.711l-29.823-53.093l12.767-210.651l23.372,18.542
		c1.858,1.486,4.087,2.195,6.282,2.195c3.006,0,5.944-1.317,7.971-3.85c3.445-4.391,2.736-10.74-1.655-14.219l-38.638-30.633
		c-0.034-0.034-0.068-0.034-0.101-0.068c-0.034-0.034-0.068-0.034-0.068-0.068l-41.813-31.512
		c-6.755-5.066-8.106-14.692-3.04-21.413c5.1-6.755,14.692-8.106,21.447-3.006l14.895,11.213c2.972,2.263,6.958,2.668,10.335,1.115
		c3.377-1.554,5.64-4.863,5.877-8.579l9.322-154.011l47.183,41.137c1.925,1.689,4.289,2.499,6.654,2.499
		c2.803,0,5.64-1.182,7.633-3.479c3.681-4.188,3.242-10.605-0.979-14.287l-62.685-54.681c-0.101-0.101-0.236-0.169-0.338-0.236
		c-0.101-0.068-0.135-0.169-0.236-0.236l-42.184-31.782c-6.755-5.066-8.106-14.692-3.04-21.413c5.1-6.755,14.692-8.106,21.447-3.006
		l15.266,11.483c3.006,2.263,6.958,2.702,10.335,1.115c3.411-1.554,5.64-4.864,5.877-8.579l9.187-151.444
		c30.093,32.153,61.976,65.117,95.075,98.216c12.159,12.159,25.5,25.263,39.617,38.976l-64.914,191.67
		c-1.79,5.303,1.047,11.044,6.35,12.834c1.081,0.372,2.195,0.54,3.242,0.54c4.222,0,8.173-2.668,9.626-6.89l61.807-182.551
		C439.545,542.55,447.719,550.386,456.061,558.323z"/>
</g>
</svg>
